<?xml version="1.0" encoding="UTF-8" standalone="no"?>
<!-- Created with Inkscape (http://www.inkscape.org/) -->

<svg
   xmlns:dc="http://purl.org/dc/elements/1.1/"
   xmlns:cc="http://creativecommons.org/ns#"
   xmlns:rdf="http://www.w3.org/1999/02/22-rdf-syntax-ns#"
   xmlns:svg="http://www.w3.org/2000/svg"
   xmlns="http://www.w3.org/2000/svg"
   xmlns:sodipodi="http://sodipodi.sourceforge.net/DTD/sodipodi-0.dtd"
   xmlns:inkscape="http://www.inkscape.org/namespaces/inkscape"
   width="24"
   height="24"
   id="svg3833"
   version="1.1"
   inkscape:version="0.48.0 r9654"
   sodipodi:docname="std_volume.svg"
   inkscape:export-filename="/home/vitaly/Картинки/std_volume100.png"
   inkscape:export-xdpi="90"
   inkscape:export-ydpi="90"
   style="display:inline">
  <defs
     id="defs3835" />
  <sodipodi:namedview
     id="base"
     pagecolor="#ffffff"
     bordercolor="#666666"
     borderopacity="1.0"
     inkscape:pageopacity="0.0"
     inkscape:pageshadow="2"
     inkscape:zoom="16"
     inkscape:cx="11.4375"
     inkscape:cy="9.0672704"
     inkscape:document-units="px"
     inkscape:current-layer="g4412"
     showgrid="false"
     width="24px"
     inkscape:snap-global="true"
     showguides="false"
     inkscape:window-width="1680"
     inkscape:window-height="973"
     inkscape:window-x="0"
     inkscape:window-y="24"
     inkscape:window-maximized="1" />
  <metadata
     id="metadata3838">
    <rdf:RDF>
      <cc:Work
         rdf:about="">
        <dc:format>image/svg+xml</dc:format>
        <dc:type
           rdf:resource="http://purl.org/dc/dcmitype/StillImage" />
        <dc:title />
      </cc:Work>
    </rdf:RDF>
  </metadata>
  <g
     inkscape:label="lv100"
     inkscape:groupmode="layer"
     id="layer1"
     transform="translate(0,-1028.3622)"
     style="display:none"
     sodipodi:insensitive="true">
    <path
       style="opacity:0.86231881;fill:#eae3d0;fill-opacity:1;fill-rule:evenodd;stroke:none"
       d="m 7.9089734,1031.8935 -3.5813432,3.8125 0,0.2187 -2.6016931,0 0,8.875 2.6016931,0 0,0.3438 3.5813432,3.6875 0,-16.9375 z"
       id="rect3841"
       inkscape:connector-curvature="0" />
    <path
       style="fill:none;stroke:#eae3d0;stroke-width:1.5;stroke-linecap:butt;stroke-linejoin:miter;stroke-miterlimit:4;stroke-opacity:1;stroke-dasharray:none"
       d="m 11.576733,1035.3347 c 0,0 2.58777,3.7857 -0.0345,10.6799"
       id="path3848"
       inkscape:connector-curvature="0" />
    <path
       inkscape:connector-curvature="0"
       id="path3850"
       d="m 14.033532,1033.8226 c 0,0 3.939573,4.6993 -0.05254,13.2578"
       style="fill:none;stroke:#eae3d0;stroke-width:1.5;stroke-linecap:butt;stroke-linejoin:miter;stroke-miterlimit:4;stroke-opacity:1;stroke-dasharray:none" />
    <path
       style="fill:none;stroke:#eae3d0;stroke-width:1.5;stroke-linecap:butt;stroke-linejoin:miter;stroke-miterlimit:4;stroke-opacity:1;stroke-dasharray:none"
       d="m 16.99716,1032.2281 c 0,0 4.75841,6.0584 -0.25346,16.2949"
       id="path3852"
       inkscape:connector-curvature="0"
       sodipodi:nodetypes="cc" />
    <path
       inkscape:connector-curvature="0"
       id="path3854"
       d="m 9.2555005,1036.5069 c 0,0 1.7507985,3.0814 -0.02335,8.6928"
       style="fill:none;stroke:#eae3d0;stroke-width:1.5;stroke-linecap:butt;stroke-linejoin:miter;stroke-miterlimit:4;stroke-opacity:1;stroke-dasharray:none" />
    <path
       inkscape:connector-curvature="0"
       id="path3856"
       d="m 19.881405,1030.7753 c 0,0 4.777218,6.7965 -0.0637,19.1738"
       style="fill:none;stroke:#eae3d0;stroke-width:1.5;stroke-linecap:butt;stroke-linejoin:miter;stroke-miterlimit:4;stroke-opacity:1;stroke-dasharray:none" />
  </g>
  <g
     style="display:none"
     transform="translate(0,-1028.3622)"
     id="g3796"
     inkscape:groupmode="layer"
     inkscape:label="lv80"
     sodipodi:insensitive="true">
    <path
       inkscape:connector-curvature="0"
       id="path3798"
       d="m 7.9089734,1031.8935 -3.5813432,3.8125 0,0.2187 -2.6016931,0 0,8.875 2.6016931,0 0,0.3438 3.5813432,3.6875 0,-16.9375 z"
       style="opacity:0.86231881;fill:#eae3d0;fill-opacity:1;fill-rule:evenodd;stroke:none" />
    <path
       inkscape:connector-curvature="0"
       id="path3800"
       d="m 11.576733,1035.3347 c 0,0 2.58777,3.7857 -0.0345,10.6799"
       style="fill:none;stroke:#eae3d0;stroke-width:1.5;stroke-linecap:butt;stroke-linejoin:miter;stroke-miterlimit:4;stroke-opacity:1;stroke-dasharray:none" />
    <path
       style="fill:none;stroke:#eae3d0;stroke-width:1.5;stroke-linecap:butt;stroke-linejoin:miter;stroke-miterlimit:4;stroke-opacity:1;stroke-dasharray:none"
       d="m 14.033532,1033.8226 c 0,0 3.939573,4.6993 -0.05254,13.2578"
       id="path3802"
       inkscape:connector-curvature="0" />
    <path
       sodipodi:nodetypes="cc"
       inkscape:connector-curvature="0"
       id="path3804"
       d="m 16.99716,1032.2281 c 0,0 4.75841,6.0584 -0.25346,16.2949"
       style="fill:none;stroke:#eae3d0;stroke-width:1.5;stroke-linecap:butt;stroke-linejoin:miter;stroke-miterlimit:4;stroke-opacity:1;stroke-dasharray:none" />
    <path
       style="fill:none;stroke:#eae3d0;stroke-width:1.5;stroke-linecap:butt;stroke-linejoin:miter;stroke-miterlimit:4;stroke-opacity:1;stroke-dasharray:none"
       d="m 9.2555005,1036.5069 c 0,0 1.7507985,3.0814 -0.02335,8.6928"
       id="path3806"
       inkscape:connector-curvature="0" />
  </g>
  <g
     inkscape:label="lv60"
     inkscape:groupmode="layer"
     id="g3810"
     transform="translate(0,-1028.3622)"
     style="display:none"
     sodipodi:insensitive="true">
    <path
       style="opacity:0.86231881;fill:#eae3d0;fill-opacity:1;fill-rule:evenodd;stroke:none"
       d="m 7.9089734,1031.8935 -3.5813432,3.8125 0,0.2187 -2.6016931,0 0,8.875 2.6016931,0 0,0.3438 3.5813432,3.6875 0,-16.9375 z"
       id="path3812"
       inkscape:connector-curvature="0" />
    <path
       style="fill:none;stroke:#eae3d0;stroke-width:1.5;stroke-linecap:butt;stroke-linejoin:miter;stroke-miterlimit:4;stroke-opacity:1;stroke-dasharray:none"
       d="m 11.576733,1035.3347 c 0,0 2.58777,3.7857 -0.0345,10.6799"
       id="path3814"
       inkscape:connector-curvature="0" />
    <path
       inkscape:connector-curvature="0"
       id="path3816"
       d="m 14.033532,1033.8226 c 0,0 3.939573,4.6993 -0.05254,13.2578"
       style="fill:none;stroke:#eae3d0;stroke-width:1.5;stroke-linecap:butt;stroke-linejoin:miter;stroke-miterlimit:4;stroke-opacity:1;stroke-dasharray:none" />
    <path
       inkscape:connector-curvature="0"
       id="path3820"
       d="m 9.2555005,1036.5069 c 0,0 1.7507985,3.0814 -0.02335,8.6928"
       style="fill:none;stroke:#eae3d0;stroke-width:1.5;stroke-linecap:butt;stroke-linejoin:miter;stroke-miterlimit:4;stroke-opacity:1;stroke-dasharray:none" />
  </g>
  <g
     style="display:none"
     transform="translate(0,-1028.3622)"
     id="g3822"
     inkscape:groupmode="layer"
     inkscape:label="lv40"
     sodipodi:insensitive="true">
    <path
       inkscape:connector-curvature="0"
       id="path3824"
       d="m 7.9089734,1031.8935 -3.5813432,3.8125 0,0.2187 -2.6016931,0 0,8.875 2.6016931,0 0,0.3438 3.5813432,3.6875 0,-16.9375 z"
       style="opacity:0.86231881;fill:#eae3d0;fill-opacity:1;fill-rule:evenodd;stroke:none" />
    <path
       inkscape:connector-curvature="0"
       id="path3826"
       d="m 11.576733,1035.3347 c 0,0 2.58777,3.7857 -0.0345,10.6799"
       style="fill:none;stroke:#eae3d0;stroke-width:1.5;stroke-linecap:butt;stroke-linejoin:miter;stroke-miterlimit:4;stroke-opacity:1;stroke-dasharray:none" />
    <path
       style="fill:none;stroke:#eae3d0;stroke-width:1.5;stroke-linecap:butt;stroke-linejoin:miter;stroke-miterlimit:4;stroke-opacity:1;stroke-dasharray:none"
       d="m 9.2555005,1036.5069 c 0,0 1.7507985,3.0814 -0.02335,8.6928"
       id="path3830"
       inkscape:connector-curvature="0" />
  </g>
  <g
     inkscape:label="lv20"
     inkscape:groupmode="layer"
     id="g3832"
     transform="translate(0,-1028.3622)"
     style="display:none"
     sodipodi:insensitive="true">
    <path
       style="opacity:0.86231881;fill:#eae3d0;fill-opacity:1;fill-rule:evenodd;stroke:none"
       d="m 7.9089734,1031.8935 -3.5813432,3.8125 0,0.2187 -2.6016931,0 0,8.875 2.6016931,0 0,0.3438 3.5813432,3.6875 0,-16.9375 z"
       id="path3834"
       inkscape:connector-curvature="0" />
    <path
       inkscape:connector-curvature="0"
       id="path3838"
       d="m 9.2555005,1036.5069 c 0,0 1.7507985,3.0814 -0.02335,8.6928"
       style="fill:none;stroke:#eae3d0;stroke-width:1.5;stroke-linecap:butt;stroke-linejoin:miter;stroke-miterlimit:4;stroke-opacity:1;stroke-dasharray:none" />
  </g>
  <g
     transform="translate(0,-1028.3622)"
     id="g4412"
     inkscape:groupmode="layer"
     inkscape:label="lv0"
     style="display:inline">
    <path
       style="fill:none;stroke:#eae3d0;stroke-width:1.5;stroke-linecap:butt;stroke-linejoin:miter;stroke-opacity:1;stroke-miterlimit:4;stroke-dasharray:none"
       d="m 12.633929,1035.7417 6.5625,9.241"
       id="path4418"
       inkscape:connector-curvature="0" />
    <path
       inkscape:connector-curvature="0"
       id="path4420"
       d="m 19.196429,1035.7417 -6.5625,9.241"
       style="fill:none;stroke:#eae3d0;stroke-width:1.5;stroke-linecap:butt;stroke-linejoin:miter;stroke-opacity:1;stroke-miterlimit:4;stroke-dasharray:none" />
    <path
       style="opacity:0.86231881;fill:#eae3d0;fill-opacity:1;fill-rule:evenodd;stroke:none;display:inline"
       d="m 7.9101565,1031.8935 -3.5813432,3.8125 0,0.2187 -2.6016931,0 0,8.875 2.6016931,0 0,0.3438 3.5813432,3.6875 0,-16.9375 z"
       id="rect3841-6"
       inkscape:connector-curvature="0" />
  </g>
</svg>
